<svg xmlns="http://www.w3.org/2000/svg" xmlns:xlink="http://www.w3.org/1999/xlink" fill="currentColor" version="1.1" width="20" height="20" viewBox="0 0 20 20"><defs><clipPath id="master_svg0_1_25731"><rect x="0" y="0" width="20" height="20" rx="0"/></clipPath></defs><g clip-path="url(#master_svg0_1_25731)"><g><path d="M6.125,17L9.125,17C9.125,17.825,8.45,18.5,7.625,18.5C6.8,18.5,6.125,17.825,6.125,17ZM4.625,15.5C4.625,15.9125,4.9625,16.25,5.375,16.25L9.875,16.25C10.2875,16.25,10.625,15.9125,10.625,15.5C10.625,15.0875,10.2875,14.75,9.875,14.75L5.375,14.75C4.9625,14.75,4.625,15.0875,4.625,15.5ZM13.25,9.125C13.25,11.99,11.255,13.52,10.4225,14L4.827500000000001,14C3.995,13.52,2,11.99,2,9.125C2,6.02,4.52,3.5,7.625,3.5C10.73,3.5,13.25,6.02,13.25,9.125ZM16.9025,7.5275L15.875,8L16.9025,8.4725L17.375,9.5L17.8475,8.4725L18.875,8L17.8475,7.5275L17.375,6.5L16.9025,7.5275ZM15.125,6.5L15.83,4.955L17.375,4.25L15.83,3.545L15.125,2L14.42,3.545L12.875,4.25L14.42,4.955L15.125,6.5Z" fill="#000000" fill-opacity="1" style="mix-blend-mode:passthrough"/></g></g></svg>