<svg xmlns="http://www.w3.org/2000/svg" xmlns:xlink="http://www.w3.org/1999/xlink" fill="currentColor" version="1.1" width="20" height="20" viewBox="0 0 20 20"><defs><clipPath id="master_svg0_1_81469"><rect x="0" y="0" width="20" height="20" rx="0"/></clipPath></defs><g clip-path="url(#master_svg0_1_81469)"><g><path d="M17.404,16.0577C17.8548,15.3346,18.1084,14.4893,18.052,13.5596C17.9299,11.5404,16.324,9.83113,14.3236,9.61513C11.813,9.32297,9.60904,11.2854,9.60904,13.8131C9.60904,16.151600000000002,11.4967,18.0393,13.8258,18.0393C14.6523,18.0393,15.4224,17.7952,16.0704,17.3819L18.3338,19.6453C18.7,20.0116,19.3011,20.0116,19.6674,19.6453C20.0336,19.279,20.0336,18.678,19.6674,18.3117L17.404,16.0577ZM13.8352,16.161C12.5385,16.161,11.4873,15.1098,11.4873,13.8131C11.4873,12.5164,12.5385,11.4653,13.8352,11.4653C15.1319,11.4653,16.1831,12.5164,16.1831,13.8131C16.1831,15.1098,15.1319,16.161,13.8352,16.161ZM13.4971,8.17822C12.8022,8.197,12.1354,8.34727,11.5249,8.60084L11.0084,7.82134L8.11579,12.5265C7.78321,13.0688,7.01903,13.1305,6.60375,12.6486L4.61274,10.32888L1.73893,14.9307C1.4478,15.3909,0.827954,15.513,0.386552,15.1937C-0.00789233,14.9026,-0.120591,14.3579,0.142372,13.9352L3.69237,8.253350000000001C4.03047,7.71804,4.79118,7.66169,5.20441,8.14066L7.18602,10.45097L10.1725,5.59555C10.5298,5.01177,11.3725,4.99672,11.7503,5.56737L13.4971,8.17822ZM15.9295,8.6478C15.3285,8.38484,14.6805,8.22518,14.0043,8.18761L18.268,1.435098C18.5592,0.9749123,19.179,0.862214,19.611,1.181526C20.0149,1.472664,20.1182,2.02676,19.8552,2.43999L15.9295,8.6478Z" fill="#000000" fill-opacity="1" style="mix-blend-mode:passthrough"/></g></g></svg>