<svg xmlns="http://www.w3.org/2000/svg" xmlns:xlink="http://www.w3.org/1999/xlink" fill="currentColor" version="1.1" width="20" height="20" viewBox="0 0 20 20"><defs><clipPath id="master_svg0_1_25719"><rect x="0" y="0" width="20" height="20" rx="0"/></clipPath></defs><g clip-path="url(#master_svg0_1_25719)"><g><path d="M14.5,10C15.88,10,16.99,8.879999999999999,16.99,7.5C16.99,6.12,15.88,5,14.5,5C13.1193,5,12,6.1192899999999995,12,7.5C12,8.88071,13.1193,10,14.5,10ZM7,9C8.66,9,9.99,7.66,9.99,6C9.99,4.34,8.66,3,7,3C5.34,3,4,4.34,4,6C4,7.66,5.34,9,7,9ZM14.5,12C12.67,12,9,12.92,9,14.75L9,16C9,16.55,9.45,17,10,17L19,17C19.55,17,20,16.55,20,16L20,14.75C20,12.92,16.33,12,14.5,12ZM7,11C4.67,11,0,12.17,0,14.5L0,16C0,16.55,0.45,17,1,17L7,17L7,14.75C7,13.9,7.33,12.41,9.37,11.28C8.5,11.1,7.66,11,7,11Z" fill="#000000" fill-opacity="1" style="mix-blend-mode:passthrough"/></g></g></svg>